<?xml version="1.0" encoding="utf-8"?>
<!-- Generator: Adobe Illustrator 26.5.0, SVG Export Plug-In . SVG Version: 6.00 Build 0)  -->
<svg version="1.1" id="图层_1" xmlns="http://www.w3.org/2000/svg" xmlns:xlink="http://www.w3.org/1999/xlink" x="0px" y="0px"
	 viewBox="0 0 2000 2000" style="enable-background:new 0 0 2000 2000;" xml:space="preserve">
<style type="text/css">
	.st0{fill:#51E3FF;}
	.st1{opacity:0.8;fill:#51E3FF;enable-background:new    ;}
</style>
<path class="st0" d="M1677.1,1057.7H1975l-458.5,807.8h-918l149.4-262.6c86.3,40.8,180.5,62,276,61.9
	C1366.2,1664.8,1647.2,1398,1677.1,1057.7L1677.1,1057.7z M634.1,1536.7l-149.4,260L25,995.8l456.6-795.5l149.6,256.9
	c-173.4,124.6-276,325.2-275.7,538.7C355.1,1210.7,459,1412.3,634.1,1536.7L634.1,1536.7z M733.4,396.6L580.8,134.5H1508
	l460.1,801.7h-298.9c-30-337.8-312-602.5-655.5-602.5C913.4,333.7,818.5,356.3,733.4,396.6L733.4,396.6L733.4,396.6z"/>
<path class="st1" d="M1184.9,1122.2c-17.8-17.8-44.4-17.8-62.2,0l-51.1,51.1V844.4c0-24.4-20-44.4-44.4-44.4s-44.4,20-44.4,44.4
	v326.7l-48.9-48.9c-17.8-17.8-44.4-17.8-62.2,0s-17.8,44.4,0,62.2l126.7,126.7c6.7,8.9,17.8,13.3,28.9,13.3s22.2-4.4,31.1-13.3
	l126.7-126.7C1202.7,1168.9,1202.7,1140,1184.9,1122.2L1184.9,1122.2L1184.9,1122.2z"/>
<path class="st0" d="M1340.5,795.6c-20-153.3-155.6-271.1-313.3-271.1S733.8,642.2,713.8,795.6c-106.7,20-186.7,117.8-180,231.1
	c6.7,117.8,111.1,208.9,228.9,208.9h66.7c8.9,0,11.1-8.9,6.7-15.6c-33.3-33.3-37.8-88.9-6.7-124.4c24.4-26.7,60-35.6,93.3-26.7
	c4.4,2.2,11.1-2.2,11.1-8.9V844.4c0-51.1,37.8-88.9,93.3-88.9c55.6,0,93.3,35.6,93.3,88.9V1060c0,6.7,4.4,11.1,11.1,8.9
	c33.3-8.9,68.9,0,93.3,26.7c31.1,35.6,26.7,91.1-6.7,124.4c-6.7,6.7-2.2,15.6,6.7,15.6h66.7c120,0,222.2-91.1,228.9-208.9
	C1527.1,913.3,1447.1,815.6,1340.5,795.6L1340.5,795.6L1340.5,795.6z"/>
</svg>
