<?xml version="1.0" encoding="utf-8"?>
<!-- Generator: Adobe Illustrator 26.5.0, SVG Export Plug-In . SVG Version: 6.00 Build 0)  -->
<svg version="1.1" id="图层_1" xmlns="http://www.w3.org/2000/svg" xmlns:xlink="http://www.w3.org/1999/xlink" x="0px" y="0px"
	 viewBox="0 0 2000 2000" style="enable-background:new 0 0 2000 2000;" xml:space="preserve">
<style type="text/css">
	.st0{opacity:0.4;fill:#51E3FF;}
	.st1{fill:#6ADFFF;}
	.st2{opacity:0.5;fill:#51E3FF;}
	.st3{fill:#51E3FF;}
</style>
<path class="st0" d="M1120.1,875c0,0-4.1-10.6-4.1-18.8c-1.6-6.5,0.9-17.9,0.9-17.9l-501.5,37.6v37.6L1120.1,875L1120.1,875z
	 M1145.7,792.5c0,0,9.8-6.5,16.3-7.4c9-3.3,19.6-3.3,19.6-3.3l-83.3-178.8l-33.5,16.3L1145.7,792.5z M1508.4,918.3l2.4-35.1
	l-260.5-40.8c0,0,0.8,9.8-0.8,19.6c-2.5,12.3-4.9,15.5-4.9,15.5L1508.4,918.3L1508.4,918.3z M774.9,1343.8l-47.4,20.4L549.5,919.1
	l33.5-16.3L774.9,1343.8z M1134.3,896.6l-329.1,454.1l38.4,32.7l322.6-468.8c0,0-13.1-4.1-17.2-6.5
	C1145.7,906.4,1134.3,896.6,1134.3,896.6L1134.3,896.6z"/>
<path class="st1" d="M557.7,875l440.2-310.4l26.1,51.5L591.2,899.6L557.7,875L557.7,875z M859.9,1419.8l654.2-480.2l-22.1-29.4
	l-673,454.9L859.9,1419.8L859.9,1419.8z"/>
<path class="st1" d="M1584.6,910.2c0,38.8-31.4,70.2-70.2,70.2c-38.7-0.3-69.9-31.6-70.2-70.2c0-38.8,31.4-70.2,70.2-70.2
	C1553.2,839.9,1584.7,871.4,1584.6,910.2L1584.6,910.2z M641.8,899.5c0.1,46.4-37.5,84-83.9,84.1c-0.1,0-0.1,0-0.2,0
	c-46.4,0.1-84.1-37.5-84.1-83.9c0-0.1,0-0.2,0-0.2c-0.1-46.4,37.5-84,83.9-84.1c0.1,0,0.1,0,0.2,0c46.4-0.1,84,37.5,84.1,83.9
	C641.8,899.4,641.8,899.5,641.8,899.5L641.8,899.5z"/>
<path class="st2" d="M1250.8,849.2c0.1,37.3-30.1,67.7-67.5,67.8c-0.1,0-0.2,0-0.3,0c-37.3,0.1-67.7-30.1-67.8-67.5
	c0-0.1,0-0.2,0-0.3c0-37.6,30.2-67.8,67.8-67.8C1220.6,780.6,1250.8,810.8,1250.8,849.2z"/>
<path class="st1" d="M1008.5,621L770,1339.8l71.1,20.4l230.3-735L1008.5,621z"/>
<path class="st1" d="M1148.2,564.7c-0.2,54.1-44,97.8-98,98c-54-0.2-97.8-43.9-98-98c0.2-54.1,43.9-97.8,98-98
	C1104.2,466.8,1148,510.6,1148.2,564.7z M901.5,1414.1c0.2,65.7-52.8,119-118.5,119.2c-0.3,0-0.5,0-0.8,0
	c-65.7,0.2-119-52.9-119.2-118.5c0-0.2,0-0.5,0-0.7c-0.2-65.7,52.8-119,118.5-119.2c0.3,0,0.5,0,0.8,0
	C848.1,1294.9,901.4,1348.3,901.5,1414.1L901.5,1414.1z"/>
<path class="st3" d="M1677.1,1057.7H1975l-458.5,807.8h-918l149.4-262.6c86.3,40.8,180.5,62,276,61.9
	C1366.2,1664.8,1647.2,1398,1677.1,1057.7L1677.1,1057.7z M634.1,1536.7l-149.4,260L25,995.8l456.6-795.5l149.6,256.9
	c-173.4,124.6-276,325.2-275.7,538.7C355.1,1210.7,459,1412.3,634.1,1536.7L634.1,1536.7z M733.4,396.6L580.8,134.5H1508
	l460.1,801.7h-298.9c-30-337.8-312-602.5-655.5-602.5C913.4,333.7,818.5,356.3,733.4,396.6L733.4,396.6z"/>
</svg>
