<?xml version="1.0" encoding="UTF-8"?>
<svg id="_图层_1" data-name="图层 1" xmlns="http://www.w3.org/2000/svg" viewBox="0 0 1874.9 1428.9">
  <defs>
    <style>
      .cls-1 {
        fill: #1ac678;
      }

      .cls-2 {
        fill: #83fce5;
      }

      .cls-3 {
        fill: #008cff;
      }
    </style>
  </defs>
  <path class="cls-3" d="M1073.9,392.4H107.5c-59.4,0-107.5-48.2-107.5-107.6V107.6C0,48.3,48.3,0,107.5,0h966.5c59.3,0,107.5,48.2,107.5,107.6v177.1c0,59.4-48.2,107.6-107.6,107.7h0ZM107.5,37.5c-38.6,0-70,31.4-70,70.1v177.1c0,38.6,31.4,70,70,70h966.5c38.7,0,70-31.4,70-70V107.6c0-38.7-31.4-70.1-70-70.1H107.5Z"/>
  <path class="cls-3" d="M159.7,160.2h72.1v72.2h-72.1v-72.2Zm134.7,0h72.1v72.2h-72.1v-72.2Zm134.6,0h72.1v72.2h-72.1v-72.2Zm479.3,72.1h-262.1c-19.9,0-36-16.2-36-36.1s16.1-36,36-36h262.1c19.9,0,36,16.2,36,36.1s-16.2,35.9-36,36Z"/>
  <path class="cls-3" d="M1073.9,910.6H107.5c-59.4,0-107.5-48.2-107.5-107.5v-177.2c0-59.3,48.3-107.5,107.5-107.5h966.5c59.3,0,107.5,48.2,107.5,107.5v177.2c0,59.4-48.2,107.5-107.6,107.5h0ZM107.5,555.9c-38.6,0-70,31.4-70,70v177.1c0,38.7,31.4,70.1,70,70.1h966.5c38.7,0,70-31.4,70-70.1v-177.1c0-38.6-31.4-70-70-70H107.5Z"/>
  <path class="cls-1" d="M1073.8,615.9H107.3c-5.5,0-9.9,4.5-9.8,10h0v177.1c0,5.3,4.4,10.1,9.8,10.1h966.4c5.5-.2,9.9-4.6,10.1-10.1v-177c0-5.5-4.4-10-9.9-10.1t0,0h0ZM232,750.7h-72.2v-72.3h72.2v72.3Zm134.4,0h-72v-72.3h72v72.3Zm134.7,0h-72.2v-72.3h72.2v72.3Zm407.1,0h-261.9c-19.9,0-36-16.2-36-36v-.3c0-19.9,16.1-36,36-36h261.9c20,.7,35.5,17.5,34.8,37.5-.8,18.9-15.9,34-34.8,34.8Z"/>
  <path class="cls-3" d="M1073.9,1428.9H107.5c-59.4,0-107.5-48.2-107.5-107.5v-177.2c0-59.3,48.3-107.6,107.5-107.6h966.5c59.3,0,107.5,48.2,107.5,107.6v177.2c0,59.4-48.2,107.5-107.6,107.5h0ZM107.5,1074.2c-38.6,0-70,31.4-70,70.1v177.1c0,38.7,31.4,70.1,70,70.1h966.5c38.7,0,70-31.4,70-70.1v-177.1c0-38.7-31.4-70.1-70-70.1H107.5Z"/>
  <path class="cls-3" d="M159.7,1196.7h72.1v72.2h-72.1v-72.2Zm134.7,0h72.1v72.2h-72.1v-72.2Zm134.6,0h72.1v72.2h-72.1v-72.2Zm479.3,72.1h-262.1c-19.9,0-36-16.1-36-36s16.1-36.1,36-36.1h262.1c19.9,0,36.1,16.1,36.1,36.1s-16.2,36-36.1,36h0Z"/>
  <g>
    <path class="cls-2" d="M1499.5,611.8c49.3,0,89.5-39.9,89.5-89.5,0-49.3-39.9-89.5-89.5-89.5h0c-49.3,0-89.5,39.9-89.5,89.5s39.9,89.5,89.5,89.5h0Z"/>
    <path class="cls-3" d="M1419.6,522.2c0-44.2,36-79.9,79.9-79.9,43.9,0,79.9,36,79.9,79.9,0,43.9-35.7,79.9-79.9,79.9s-79.9-35.7-79.9-79.9m-9.6,0c0,49.6,40.2,89.5,89.5,89.5,49.3,0,89.5-40.2,89.5-89.5,0-49.3-40.2-89.5-89.5-89.5s-89.5,39.9-89.5,89.5Z"/>
    <path class="cls-3" d="M1620.2,446.3c17.6,0,31.7-14.2,31.7-31.7s-14.2-31.7-31.7-31.7h0c-17.6,0-31.7,14.2-31.7,31.7s13.9,31.7,31.7,31.7h0Z"/>
    <path class="cls-3" d="M1607.4,414.6c0-7.1,5.7-12.8,12.8-12.8s12.8,5.7,12.8,12.8-5.7,12.8-12.8,12.8-12.8-5.7-12.8-12.8m-19,0c0,17.6,14.2,31.7,31.7,31.7,17.6,0,31.7-14.2,31.7-31.7s-14.2-31.7-31.7-31.7c-17.6-.3-31.7,14.2-31.7,31.7Z"/>
    <path class="cls-3" d="M1651.9,567.3c17.6,0,31.7-14.2,31.7-31.7s-14.2-31.7-31.7-31.7h0c-17.6,0-31.7,14.2-31.7,31.7s14.2,31.7,31.7,31.7h0Z"/>
    <path class="cls-3" d="M1639.2,535.3c0-7.1,5.7-12.8,12.8-12.8s12.8,5.7,12.8,12.8-5.7,12.8-12.8,12.8-12.8-5.7-12.8-12.8m-19,0c0,17.6,14.2,31.7,31.7,31.7,17.6,0,31.7-14.2,31.7-31.7s-14.2-31.7-31.7-31.7-31.7,14.2-31.7,31.7Zm-319.1,450.2c-2.5,13.2-4.9,26.5-7.4,39.7-2.7,1-5.4,2.1-8.2,3.1-7.4-2.4-17.5-6.9-26.1-15.8-17.9-18.7-19.6-43.6-17-78.2,8.8-114.8-19.6-154.7-47-193.2h0c-5.6-8.1-8.2-11.7-15.8-22.5s-3.1-5.4-5.2-9.2-1.9-6.1,0-7.9c1-1,2.6-1.2,3.7-.9,2.6,.5,4.1,3.2,4.5,4,6,10.8,13.3,20.8,20.4,30.9,24.6,34.8,50.4,70.8,50.4,158.7s-.6,26.1-1.7,40.8c-3.8,49.8,6.7,63.2,14.4,71.1,7,7.1,15.3,10.3,20.4,11.8,1.2-12.2,2.5-24.4,3.7-36.5,2.3-.5,3.9-.2,5,.2,0,0,1.4,.5,5.7,4Z"/>
    <path class="cls-2" d="M1867.2,425.3c0,55-77.1,108.2-118.4,149.9l-13.9,14.2c-136.6,138-136.6,188.7-.6,327l26.4,26.9c33.7,34.3,106.5,77.9,106.5,123.2,0,7.1,2.3,12.8,6.2,17.3,.9-5.7,1.4-11.3,1.4-17.3,0-45.1-18.4-89-52.1-123.2l-26.4-26.9c-136-138.3-136-189,.6-327l13.9-14.2c41.4-41.7,64-94.9,64-149.9s-.3-7.4-.6-10.8c-4.5,1.1-7.1,4.5-7.1,10.8h0Z"/>
    <path class="cls-3" d="M1642,753.1c0-21.2,7.6-43.1,24.1-68.6,15.6-24.1,38.8-51.3,75.6-88.4l13.9-14.2c9.1-9.1,20.1-19,31.7-29.5,25.2-22.7,52.7-47.3,70.6-73.7-9.6,32.9-27.8,63.7-53.6,89.8l-13.9,14.2c-64.9,65.7-105.1,117-105.1,170.3s39.9,104.6,104.5,170l26.4,26.9c20.4,21,35.1,45.3,42.8,71.4-15-19.8-37.4-38.5-58.1-55.5-12.5-10.5-24.4-20.4-33.1-29.2l-26.4-26.9c-36.6-37.1-59.8-64.3-75.1-88.4-16.7-25.5-24.4-47-24.4-68.3m-9.6,0c0,47.3,34,94.3,102,163.5l26.4,26.9c33.7,34.3,106.5,77.9,106.5,123.2,0,7.1,2.3,12.8,6.2,17.3,.9-5.7,1.4-11.3,1.4-17.3,0-45.1-18.4-89-52.1-123.2l-26.4-26.9c-68-69.1-102-116.2-102-163.5s34-94.3,102.6-163.5l13.9-14.2c41.4-41.7,64-94.9,64-149.9s-.3-7.4-.6-10.8c-4.5,1.1-7.1,4.5-7.1,10.8,0,55-77.1,108.2-118.4,149.9l-13.9,14.2c-68.3,68.9-102.6,116.2-102.6,163.5h0Z"/>
    <path class="cls-3" d="M1300,1065.1l15.3-220.1c2-30.6,3.1-61.5,3.1-92.1,0-30.9-1.1-62.1-3.1-92.7l-15.3-218.7c.3-51.8,50.1-94.1,111.6-94.1h352.2c50.7,0,92.1,34.9,92.1,77.9,0,50.1-20.7,98.6-58.4,136.6l-13.9,14.2c-66.6,67.4-107.9,120.7-107.9,177.1s41.1,109.4,107.4,176.8l26.4,26.9c30,30.6,46.7,69.7,46.7,109.7s-49,92.9-109.4,92.9h-334.9c-61.5,0-111.4-42.2-111.9-94.4m-19-622.8l15.3,219.3c2,30.3,3.1,60.9,3.1,91.2,0,30.3-1.1,60.6-3.1,90.9l-15.3,220.7c0,62.9,58.4,113.9,130.6,113.9h334.9c71.1,0,128.4-50.1,128.4-111.9s-18.4-89-52.1-123.2l-26.4-26.9c-68-69.1-102-116.2-102-163.5s34-94.3,102.6-163.5l13.9-14.2c41.4-41.7,64-94.9,64-149.9s-49.9-96.9-111.4-96.9h-351.9c-72.2,0-130.6,51-130.6,113.9h0Z"/>
    <path class="cls-3" d="M1607.4,987.2h-176.5c-10.5,0-19-8.5-19-19v-5.4c0-10.5,8.5-19,19-19h176.5c10.5,0,19,8.5,19,19v5.4c0,10.5-8.5,19-19,19Z"/>
    <path class="cls-3" d="M1430.9,962.8h176.5v5.4h-176.5v-5.4m-19,0v5.4c0,10.5,8.5,19,19,19h176.5c10.5,0,19-8.5,19-19v-5.4c0-10.5-8.5-19-19-19h-176.5c-10.5,0-19,8.5-19,19Z"/>
    <path class="cls-3" d="M1497.2,1053.8v-176.5c0-10.5,8.5-19,19-19h5.4c10.5,0,19,8.5,19,19v176.5c0,10.5-8.5,19-19,19h-5.4c-10.2,0-19-8.5-19-19Z"/>
    <path class="cls-3" d="M1516.5,877.2h5.4v176.5h-5.4v-176.5m-19.3,0v176.5c0,10.5,8.5,19,19,19h5.4c10.5,0,19-8.5,19-19v-176.5c0-10.5-8.5-19-19-19h-5.4c-10.2,0-19,8.5-19,19Z"/>
  </g>
</svg>