<?xml version="1.0" encoding="utf-8"?>
<!-- Generator: Adobe Illustrator 26.5.0, SVG Export Plug-In . SVG Version: 6.00 Build 0)  -->
<svg version="1.1" id="图层_1" xmlns="http://www.w3.org/2000/svg" xmlns:xlink="http://www.w3.org/1999/xlink" x="0px" y="0px"
	 viewBox="0 0 2000 2000" style="enable-background:new 0 0 2000 2000;" xml:space="preserve">
<style type="text/css">
	.st0{fill:#008CFF;}
	.st1{fill:#1AC678;}
	.st2{fill:#83FCE5;}
	.st3{fill:#00CFFF;}
</style>
<path class="st0" d="M1245.4,677.9H279c-59.4-0.1-107.5-48.2-107.5-107.6V393.1c0-59.3,48.3-107.6,107.5-107.6h966.5
	c59.3,0,107.5,48.2,107.5,107.6v177.1C1352.9,629.6,1304.8,677.8,1245.4,677.9L1245.4,677.9z M279,323c-38.6,0-70,31.4-70,70.1
	v177.1c0,38.6,31.4,70,70,70h966.5c38.7,0,70-31.4,70-70V393.1c0-38.7-31.4-70.1-70-70.1H279z"/>
<path class="st0" d="M331.2,445.7h72.1v72.2h-72.1V445.7z M465.9,445.7H538v72.2h-72.1V445.7z M600.5,445.7h72.1v72.2h-72.1V445.7z
	 M1079.8,517.8H817.7c-19.9,0-36-16.2-36-36.1c0-19.9,16.1-36,36-36h262.1c19.9,0,36,16.2,36,36.1
	C1115.8,501.6,1099.6,517.7,1079.8,517.8z"/>
<path class="st0" d="M1245.4,1196.1H279c-59.4-0.1-107.5-48.2-107.5-107.5V911.4c0-59.3,48.3-107.5,107.5-107.5h966.5
	c59.3,0,107.5,48.2,107.5,107.5v177.2C1352.9,1148,1304.8,1196.1,1245.4,1196.1L1245.4,1196.1z M279,841.4c-38.6,0-70,31.4-70,70
	v177.1c0,38.7,31.4,70.1,70,70.1h966.5c38.7,0,70-31.4,70-70.1V911.4c0-38.6-31.4-70-70-70L279,841.4L279,841.4z"/>
<path class="st1" d="M1245.3,901.4H278.8c-5.5,0.1-9.9,4.5-9.8,10c0,0,0,0.1,0,0.1v177c0,5.3,4.4,10.1,9.8,10.1h966.4
	c5.5-0.2,9.9-4.6,10.1-10.1v-177c0.1-5.5-4.4-10-9.9-10.1C1245.4,901.4,1245.4,901.4,1245.3,901.4L1245.3,901.4z M403.5,1036.2
	h-72.2v-72.3h72.2V1036.2z M537.9,1036.2h-72v-72.3h72V1036.2z M672.6,1036.2h-72.2v-72.3h72.2V1036.2z M1079.7,1036.2H817.8
	c-19.9,0-36-16.2-36-36c0-0.1,0-0.2,0-0.3c0-19.9,16.1-36,36-36h261.9c20,0.7,35.5,17.5,34.8,37.5
	C1113.7,1020.3,1098.6,1035.4,1079.7,1036.2z"/>
<path class="st0" d="M1245.4,1714.4H279c-59.4-0.1-107.5-48.2-107.5-107.5v-177.2c0-59.3,48.3-107.6,107.5-107.6h966.5
	c59.3,0,107.5,48.2,107.5,107.6v177.2C1352.9,1666.3,1304.8,1714.4,1245.4,1714.4L1245.4,1714.4z M279,1359.7
	c-38.6,0-70,31.4-70,70.1v177.1c0,38.7,31.4,70.1,70,70.1h966.5c38.7,0,70-31.4,70-70.1v-177.1c0-38.7-31.4-70.1-70-70.1H279z"/>
<path class="st0" d="M331.2,1482.2h72.1v72.2h-72.1V1482.2z M465.9,1482.2H538v72.2h-72.1V1482.2z M600.5,1482.2h72.1v72.2h-72.1
	V1482.2z M1079.8,1554.3H817.7c-19.9,0-36-16.1-36-36s16.1-36.1,36-36.1h262.1c19.9,0,36.1,16.1,36.1,36.1
	S1099.7,1554.3,1079.8,1554.3L1079.8,1554.3z"/>
<path class="st0" d="M1722.7,1714.4h-165.8c-58.5-0.1-105.8-47.4-105.9-105.9V619.4c0-10.4,8.4-18.8,18.7-18.8
	c10.4,0,18.8,8.4,18.8,18.8v989.1c0.1,37.8,30.6,68.3,68.4,68.4h165.8c37.8-0.1,68.3-30.6,68.4-68.4V671.2
	c0-18.3-14.8-33.1-33.1-33.1c-10.4,0-18.8-8.4-18.8-18.8s8.4-18.8,18.8-18.8l0,0c38.9,0,70.6,31.7,70.6,70.6v937.3
	C1828.5,1667,1781.2,1714.4,1722.7,1714.4L1722.7,1714.4z"/>
<path class="st0" d="M1713.6,1260.2h-34.5c-11.6,0-21.1,9.4-21.1,21v265.8c0,11.6,9.4,21,21.1,21h34.5c11.6,0,21-9.4,21-21v-265.9
	C1734.6,1269.7,1725.2,1260.3,1713.6,1260.2L1713.6,1260.2z M1600.5,1381.2H1566c-11.6,0-21,9.4-21,21v144.9c0,11.6,9.4,21,21,21
	h34.5c11.6,0,21-9.4,21-21v-144.9C1621.6,1390.7,1612.2,1381.2,1600.5,1381.2C1600.6,1381.2,1600.5,1381.2,1600.5,1381.2z"/>
<path class="st2" d="M1649.3,860.3c-17.4,0-31.6,14.1-31.6,31.6c0,17.4,14.1,31.6,31.6,31.6c0,0,0,0,0,0c17.4,0,31.6-14.1,31.6-31.6
	C1680.9,874.5,1666.8,860.3,1649.3,860.3C1649.3,860.3,1649.3,860.3,1649.3,860.3z"/>
<path class="st0" d="M1677.5,891.9c0,15.6-12.7,28.2-28.2,28.2s-28.2-12.7-28.2-28.2s12.6-28.2,28.2-28.2
	C1664.9,863.7,1677.5,876.3,1677.5,891.9 M1680.9,891.9c0-17.5-14.2-31.6-31.6-31.6s-31.6,14.2-31.6,31.6
	c0,17.4,14.2,31.6,31.6,31.6S1680.9,909.4,1680.9,891.9z"/>
<path class="st0" d="M1606.7,918.7c-6.2,0-11.2,5-11.2,11.2s5,11.2,11.2,11.2c0,0,0,0,0,0c6.2,0,11.2-5,11.2-11.2
	S1613,918.7,1606.7,918.7C1606.7,918.7,1606.7,918.7,1606.7,918.7z"/>
<path class="st0" d="M1611.2,929.9c0,2.5-2,4.5-4.5,4.5c-2.5,0-4.5-2-4.5-4.5c0-2.5,2-4.5,4.5-4.5
	C1609.2,925.4,1611.2,927.4,1611.2,929.9 M1617.9,929.9c0-6.2-5-11.2-11.2-11.2c-6.2,0-11.2,5-11.2,11.2c0,6.2,5,11.2,11.2,11.2
	C1612.9,941.2,1617.9,936.1,1617.9,929.9z"/>
<path class="st0" d="M1595.5,876c-6.2,0-11.2,5-11.2,11.2s5,11.2,11.2,11.2c0,0,0,0,0,0c6.2,0,11.2-5,11.2-11.2
	C1606.7,881.1,1601.7,876,1595.5,876C1595.5,876,1595.5,876,1595.5,876z"/>
<path class="st0" d="M1600,887.3c0,2.5-2,4.5-4.5,4.5c-2.5,0-4.5-2-4.5-4.5c0-2.5,2-4.5,4.5-4.5C1598,882.8,1600,884.8,1600,887.3
	 M1606.7,887.3c0-6.2-5-11.2-11.2-11.2c-6.2,0-11.2,5-11.2,11.2c0,6.2,5,11.2,11.2,11.2C1601.7,898.5,1606.7,893.5,1606.7,887.3z
	 M1720.1,728.9c0-0.1,0-0.2,0-0.3l2.8-14.1l1.4,0c0.2,0,4.5,0.1,8.3,4.4c4.9,5.4,6.9,14.7,6,27.6c-3.1,40.5,6.9,54.6,16.6,68.2
	c2.5,3.5,5.1,7.1,7.4,11.2c0.5,0.8,0.2,1.9-0.6,2.3c-0.8,0.5-1.8,0.2-2.3-0.6c-2.2-3.9-4.6-7.3-7.2-10.9c-8.7-12.3-17.8-25-17.8-56
	c0-4.4,0.2-9.2,0.6-14.4c1.1-14.9-2.2-21.9-5.1-25.1c-1.7-1.9-3.4-2.7-4.6-3l-2.2,11c-0.2,0.9-1.1,1.5-2,1.3
	C1720.7,730.4,1720.1,729.7,1720.1,728.9z"/>
<path class="st2" d="M1519.5,926.1c0-19.4,27.2-38.2,41.8-52.9l4.9-5c48.2-48.7,48.2-66.6,0.2-115.4l-9.3-9.5
	c-11.9-12.1-37.6-27.5-37.6-43.5c0-2.5-0.8-4.5-2.2-6.1c-0.3,2-0.5,4-0.5,6.1c0,15.9,6.5,31.4,18.4,43.5l9.3,9.5
	c48,48.8,48,66.7-0.2,115.4l-4.9,5c-14.6,14.7-22.6,33.5-22.6,52.9c0,1.3,0.1,2.6,0.2,3.8C1518.6,929.5,1519.5,928.3,1519.5,926.1
	L1519.5,926.1z"/>
<path class="st0" d="M1599,810.4c0,7.5-2.7,15.2-8.5,24.2c-5.5,8.5-13.7,18.1-26.7,31.2l-4.9,5c-3.2,3.2-7.1,6.7-11.2,10.4
	c-8.9,8-18.6,16.7-24.9,26c3.4-11.6,9.8-22.5,18.9-31.7l4.9-5c22.9-23.2,37.1-41.3,37.1-60.1c0-18.7-14.1-36.9-36.9-60l-9.3-9.5
	c-7.2-7.4-12.4-16-15.1-25.2c5.3,7,13.2,13.6,20.5,19.6c4.4,3.7,8.6,7.2,11.7,10.3l9.3,9.5c12.9,13.1,21.1,22.7,26.5,31.2
	C1596.3,795.3,1599,802.9,1599,810.4 M1602.4,810.4c0-16.7-12-33.3-36-57.7l-9.3-9.5c-11.9-12.1-37.6-27.5-37.6-43.5
	c0-2.5-0.8-4.5-2.2-6.1c-0.3,2-0.5,4-0.5,6.1c0,15.9,6.5,31.4,18.4,43.5l9.3,9.5c24,24.4,36,41,36,57.7c0,16.7-12,33.3-36.2,57.7
	l-4.9,5c-14.6,14.7-22.6,33.5-22.6,52.9c0,1.3,0.1,2.6,0.2,3.8c1.6-0.4,2.5-1.6,2.5-3.8c0-19.4,27.2-38.2,41.8-52.9l4.9-5
	C1590.3,843.8,1602.4,827.1,1602.4,810.4L1602.4,810.4z"/>
<path class="st0" d="M1719.7,700.3l-5.4,77.7c-0.7,10.8-1.1,21.7-1.1,32.5c0,10.9,0.4,21.9,1.1,32.7l5.4,77.2
	c-0.1,18.3-17.7,33.2-39.4,33.2H1556c-17.9,0-32.5-12.3-32.5-27.5c0-17.7,7.3-34.8,20.6-48.2l4.9-5c23.5-23.8,38.1-42.6,38.1-62.5
	c0-19.8-14.5-38.6-37.9-62.4l-9.3-9.5c-10.6-10.8-16.5-24.6-16.5-38.7c0-18.1,17.3-32.8,38.6-32.8h118.2
	C1701.9,667,1719.5,681.9,1719.7,700.3 M1726.4,920.1l-5.4-77.4c-0.7-10.7-1.1-21.5-1.1-32.2c0-10.7,0.4-21.4,1.1-32.1l5.4-77.9
	c0-22.2-20.6-40.2-46.1-40.2h-118.2c-25.1,0-45.3,17.7-45.3,39.5c0,15.9,6.5,31.4,18.4,43.5l9.3,9.5c24,24.4,36,41,36,57.7
	c0,16.7-12,33.3-36.2,57.7l-4.9,5c-14.6,14.7-22.6,33.5-22.6,52.9c0,18.9,17.6,34.2,39.3,34.2h124.2
	C1705.8,960.3,1726.4,942.3,1726.4,920.1L1726.4,920.1z"/>
<path class="st0" d="M1611.2,727.8h62.3c3.7,0,6.7,3,6.7,6.7v1.9c0,3.7-3,6.7-6.7,6.7h-62.3c-3.7,0-6.7-3-6.7-6.7v-1.9
	C1604.5,730.8,1607.5,727.8,1611.2,727.8z"/>
<path class="st0" d="M1673.5,736.4h-62.3v-1.9h62.3V736.4 M1680.2,736.4v-1.9c0-3.7-3-6.7-6.7-6.7h-62.3c-3.7,0-6.7,3-6.7,6.7v1.9
	c0,3.7,3,6.7,6.7,6.7h62.3C1677.2,743.1,1680.2,740.1,1680.2,736.4z"/>
<path class="st0" d="M1650.1,704.3v62.3c0,3.7-3,6.7-6.7,6.7l-1.9,0c-3.7,0-6.7-3-6.7-6.7v-62.3c0-3.7,3-6.7,6.7-6.7h1.9
	C1647,697.6,1650.1,700.6,1650.1,704.3z"/>
<path class="st0" d="M1643.3,766.6h-1.9v-62.3h1.9V766.6 M1650.1,766.6v-62.3c0-3.7-3-6.7-6.7-6.7h-1.9c-3.7,0-6.7,3-6.7,6.7v62.3
	c0,3.7,3,6.7,6.7,6.7l1.9,0C1647,773.3,1650.1,770.3,1650.1,766.6z"/>
<path class="st3" d="M1619.6,1199.1c-2.4,0-4.4-2-4.4-4.4c0,0,0,0,0,0v-180.3l-10.7,21.1c-1.1,2.2-3.8,3.1-5.9,2
	c-2.2-1.1-3.1-3.8-2-5.9c0,0,0,0,0,0l19.1-37.7c1.1-2.2,3.8-3.1,6-2c1.5,0.8,2.4,2.3,2.4,4v198.9
	C1624,1197.2,1622,1199.1,1619.6,1199.1L1619.6,1199.1z"/>
<path class="st3" d="M1649.8,1231.3c-2.4,0-4.4-2-4.4-4.4l0,0V1028c0-2.4,2-4.4,4.4-4.4c2.4,0,4.4,2,4.4,4.4v180.3l10.7-21.1
	c1.1-2.2,3.8-3.1,5.9-2c2.2,1.1,3.1,3.8,2,5.9c0,0,0,0,0,0l-19.1,37.7C1653,1230.4,1651.5,1231.3,1649.8,1231.3L1649.8,1231.3z"/>
</svg>
