<?xml version="1.0" encoding="UTF-8"?>
<svg id="_图层_1" data-name="图层 1" xmlns="http://www.w3.org/2000/svg" viewBox="0 0 1332 1334">
  <defs>
    <style>
      .cls-1 {
        fill: #248bff;
      }
    </style>
  </defs>
  <path class="cls-1" d="M666,126c35,0,62-28,62-63S700,0,666,0c-35,0-63,28-63,63s28,63,63,63Zm74,30l326,261c4,3,9,5,14,5h1c21,0,30-26,14-39L768,122c-9-7-23-6-30,3-9,10-8,23,2,31h0Zm524,290H68c-37,0-68,30-68,68v752c0,37,30,68,68,68H1264c37,0,68-30,68-68V514c0-37-30-68-68-68Zm-41,851H109c-37,0-68-30-68-68V551c0-37,30-68,68-68H1223c37,0,68,30,68,68v678c0,38-30,68-68,68h0ZM252,421c6,0,10-2,14-5L592,155c9-7,11-21,3-30-7-9-21-11-30-3L239,383c-16,13-7,38,13,38Z"/>
  <path class="cls-1" d="M1159,546H173c-37,0-68,30-68,68v552c0,37,30,68,68,68h986c37,0,68-30,68-68V614c0-38-31-68-68-68Zm-741,76h496c19,0,35,15,35,35s-15,35-35,35H418c-19,0-35-15-35-35s16-35,35-35h0Zm615,536H299c-19,0-35-15-35-35s15-35,35-35h734c19,0,35,15,35,35s-16,35-35,35Zm0-156H299c-19,0-35-15-35-35s15-35,35-35h734c19,0,35,15,35,35s-16,35-35,35Zm0-155H299c-19,0-35-15-35-35s15-35,35-35h734c19,0,35,15,35,35,0,19-16,35-35,35Z"/>
</svg>