<?xml version="1.0" encoding="UTF-8"?>
<svg id="_图层_1" data-name="图层 1" xmlns="http://www.w3.org/2000/svg" viewBox="0 0 1530.425 1591.02341">
  <defs>
    <style>
      .cls-1 {
        fill: #248bff;
      }
    </style>
  </defs>
  <path class="cls-1" d="M294.51389,944.88834v-308.22963h-55.86038v161.34669c0,4.73817,.49875,11.47133,1.24688,20.44883l-104.9876-181.79564H57.10726v308.22963h56.35912v-184.53877c0-3.74068-.24939-7.98007-.99749-13.21696-.24939-1.74563-.24939-5.23689-.49875-10.47384l120.69832,208.22956h61.84543v.00012Zm154.36417,0h220.19967v-60.84791h-146.88288v-67.33171h115.46143v-58.10478h-115.46143v-63.34167h146.88288v-58.6035h-220.19961l-.00006,308.22957Zm478.05516,0l48.87786-203.99017,50.62349,203.99017h71.07232l77.30677-308.22963h-59.35164l-43.64097,188.03008c-1.99499,8.97751-3.49126,15.46131-4.48881,19.4514l-51.8704-207.48143h-66.58363l-50.37413,207.48143c-.99755-4.23945-1.99499-7.48135-2.49382-9.47634-1.49627-5.73561-2.24435-8.97751-2.49382-9.97506l-42.39406-188.03003h-73.81551l79.30175,308.22957h70.3246Zm517.7061-62.34418c-8.22943,6.4838-20.44883,9.47634-36.90769,9.47634-34.16463,0-55.1123-14.46387-62.59354-43.14214l-66.83299,15.21195c6.98252,28.42891,21.69575,49.62594,43.89033,64.08981s49.12722,21.69575,80.79802,21.69575c42.1447,0,73.81551-10.22442,95.2619-30.42401,21.44639-20.44883,32.16964-44.38905,32.16964-72.31924,0-17.70577-4.98753-33.91527-14.96259-48.12966-9.97506-14.46387-22.19458-24.68829-36.90769-31.17209s-37.65589-12.9676-69.07734-19.20198c-18.70321-3.74068-30.92273-8.22943-36.15962-13.46632-5.23689-4.98753-7.98007-11.47133-7.98007-18.70327,0-18.45385,14.21451-27.68083,42.89278-27.68083,26.68328,0,44.13969,12.21946,52.61848,36.65839l61.34662-20.44889c-17.20693-48.37908-56.10974-72.56859-116.70828-72.56859-34.16463,0-61.09727,9.47634-81.04738,28.17955-19.95012,18.70327-29.92518,41.89528-29.92518,69.32669,0,27.18205,8.22943,47.63095,24.93765,61.84546,16.70822,13.96515,44.63841,25.18701,83.79057,33.41644,20.94767,4.48881,35.16206,8.97751,42.64342,13.96515,7.48135,4.98753,10.97261,11.97005,10.97261,20.94767-.24936,8.47879-4.23945,15.96014-12.21941,22.44394l-.00024-.00012Zm-683.04288-328.67852V0c-5.23689,.24937-10.72319,.24937-15.96008,.49875-177.30683,135.66092-307.48149,329.92539-362.09496,553.36696,0,0,378.0551,0,378.05504-.00006Zm-452.11996,474.81326H0c89.52623,288.27951,336.90789,506.98285,641.64626,553.61636-163.09238-142.89284-281.54629-335.41174-332.16978-553.61636Zm0-474.81326C360.09997,335.66102,478.55388,143.14222,641.64626,.24934,336.90789,46.8828,89.52623,265.58616,0,553.86564c0,0,309.47654,0,309.47648,0Zm908.72868,0h309.47654C1438.15541,265.58616,1190.77381,46.8828,886.03544,.24934c163.09232,142.89284,281.54635,335.41168,332.16984,553.6163h-.00012Zm-466.58378,474.81326v562.34451c5.23689-.24936,10.72319-.24936,16.2095-.49872,180.05001-137.90531,311.97024-334.9129,367.3319-562.09503h-383.5414v.24924Zm466.58378,0c-50.62349,218.20462-169.0774,410.7234-332.16984,553.61636,304.73837-46.63339,552.11997-265.33685,641.64626-553.61636h-309.47642Z"/>
</svg>