<?xml version="1.0" encoding="UTF-8"?>
<svg id="_图层_1" data-name="图层 1" xmlns="http://www.w3.org/2000/svg" viewBox="0 0 1803.9 1950">
  <defs>
    <style>
      .cls-1 {
        fill: #04ae7f;
      }
    </style>
  </defs>
  <path class="cls-1" d="M901.9,1950l-20.2-8.4C220,1684.6,144.4,1348.7,144.4,1118.6V240.2l58.8,1.7c460.2,15.1,655-193.2,656.7-194.8L901.9,0l42,47c1.7,1.7,186.4,194.8,608,194.8s31.9,0,48.7-1.7l58.8-1.7v878.4c0,230.1-77.3,566-737.3,823l-20.2,10.1h0ZM258.7,357.8v762.5c0,124.3,0,450.1,643.3,707.1,643.3-257,643.3-584.5,643.3-707.1V357.8c-356.1-1.7-561-129.3-643.3-194.8-82.3,65.5-287.2,193.2-643.3,194.8Z"/>
  <path class="cls-1" d="M1434.4,1155.6h-257v-436.7h92.4v361.1h162.9v75.6h1.7Zm-374.5-25.2c-30.2,21.8-72.2,33.6-126,33.6s-90.7-8.4-122.6-23.5v-94.1c33.6,28.6,75.6,43.7,119.3,43.7s43.7-5,57.1-13.4c13.4-8.4,18.5-20.2,18.5-33.6s-5-23.5-15.1-33.6c-10.1-10.1-37-25.2-80.6-43.7-68.9-28.6-102.5-70.5-102.5-126s15.1-72.2,47-94.1c30.2-21.8,72.2-33.6,122.6-33.6s78.9,5,107.5,16.8v87.3c-28.6-20.2-63.8-30.2-102.5-30.2s-42,3.4-55.4,11.8c-13.4,8.4-20.2,20.2-20.2,33.6s5,21.8,13.4,31.9c10.1,10.1,31.9,21.8,68.9,38.6,43.7,18.5,73.9,38.6,89,58.8,16.8,20.2,25.2,45.3,25.2,73.9,1.7,42-13.4,73.9-43.7,95.7h0Zm-346,0c-30.2,21.8-72.2,33.6-126,33.6s-90.7-8.4-122.6-23.5v-94.1c35.3,28.6,75.6,43.7,119.3,43.7s43.7-5,57.1-13.4c13.4-8.4,18.5-20.2,18.5-33.6s-5-23.5-15.1-33.6c-10.1-10.1-37-25.2-80.6-43.7-68.9-28.6-102.5-70.5-102.5-126s15.1-72.2,47-94.1c30.2-21.8,72.2-33.6,122.6-33.6s78.9,5,107.5,16.8v87.3c-28.6-20.2-63.8-30.2-102.5-30.2s-42,3.4-55.4,11.8c-13.4,8.4-20.2,20.2-20.2,33.6s5,21.8,13.4,31.9c10.1,10.1,31.9,21.8,68.9,38.6,43.7,18.5,73.9,38.6,89,58.8,16.8,21.8,25.2,47,25.2,73.9,0,42-15.1,73.9-43.7,95.7h0ZM1803.9,505.6c-297.3,60.5-599.6,90.7-901.9,90.7S297.3,566,0,505.6c73.9,201.6,110.9,357.8,110.9,468.6S73.9,1242.9,0,1442.8c398.1-68.9,700.4-104.1,901.9-104.1s503.9,35.3,901.9,104.1c-97.4-203.2-146.1-359.4-146.1-468.6s50.4-265.4,146.1-468.6Z"/>
</svg>