<?xml version="1.0" encoding="utf-8"?>
<!-- Generator: Adobe Illustrator 26.5.0, SVG Export Plug-In . SVG Version: 6.00 Build 0)  -->
<svg version="1.1" id="图层_1" xmlns="http://www.w3.org/2000/svg" xmlns:xlink="http://www.w3.org/1999/xlink" x="0px" y="0px"
	 viewBox="0 0 200 200" style="enable-background:new 0 0 200 200;" xml:space="preserve">
<style type="text/css">
	.st0{display:none;fill:#E0E0D1;}
	.st1{fill:#231F20;}
	.st2{fill:#C75C5C;}
	.st3{fill:#76C2AF;}
	.st4{fill:#4F5D73;}
</style>
<path class="st0" d="M12.7,99.8c0,48.3,39.1,87.4,87.4,87.4c48.3,0,87.4-39.1,87.4-87.4c0,0,0,0,0,0c0-48.3-39.1-87.4-87.4-87.4
	C51.8,12.4,12.7,51.5,12.7,99.8C12.7,99.7,12.7,99.7,12.7,99.8z"/>
<path class="st1" d="M107.6,190.6c-4.1,2.5-10.9,2.5-15,0l-75.1-45.1c-4.1-2.5-4.1-6.5,0-9l75.1-45.1c4.1-2.5,10.9-2.5,15,0
	l75.1,45.1c4.1,2.5,4.1,6.5,0,9L107.6,190.6z"/>
<path class="st2" d="M107.6,182.1c-4.1,2.5-10.9,2.5-15,0L17.4,137c-4.1-2.5-4.1-6.5,0-9l75.1-45.1c4.1-2.5,10.9-2.5,15,0l75.1,45.1
	c4.1,2.5,4.1,6.5,0,9L107.6,182.1z"/>
<path class="st1" d="M107.6,156.3c-4.1,2.5-10.9,2.5-15,0l-75.1-45.1c-4.1-2.5-4.1-6.5,0-9l75.1-45.1c4.1-2.5,10.9-2.5,15,0
	l75.1,45.1c4.1,2.5,4.1,6.5,0,9L107.6,156.3z"/>
<path class="st3" d="M107.6,147.8c-4.1,2.5-10.9,2.5-15,0l-75.1-45.1c-4.1-2.5-4.1-6.5,0-9l75.1-45.1c4.1-2.5,10.9-2.5,15,0
	l75.1,45.1c4.1,2.5,4.1,6.5,0,9L107.6,147.8z"/>
<path class="st1" d="M107.6,122.1c-4.1,2.5-10.9,2.5-15,0L17.4,77c-4.1-2.5-4.1-6.5,0-9l75.1-45.1c4.1-2.5,10.9-2.5,15,0L182.7,68
	c4.1,2.5,4.1,6.5,0,9L107.6,122.1z"/>
<path class="st4" d="M107.6,113.5c-4.1,2.5-10.9,2.5-15,0L17.4,68.4c-4.1-2.5-4.1-6.5,0-9l75.1-45.1c4.1-2.5,10.9-2.5,15,0
	l75.1,45.1c4.1,2.5,4.1,6.5,0,9L107.6,113.5z"/>
</svg>
