<?xml version="1.0" encoding="UTF-8"?>
<svg id="_图层_1" data-name="图层 1" xmlns="http://www.w3.org/2000/svg" viewBox="0 0 95.9699029922 96.1755943298">
  <defs>
    <style>
      .cls-1 {
        fill: #045edb;
      }

      .cls-2 {
        fill: #089dfa;
      }
    </style>
  </defs>
  <path class="cls-1" d="M57.8007974625,45.7735939026c-.3917922974-.1187019348-.7827987671-.2276992798-1.1851959229-.3160018921-1.1398010254-1.1401977539-2.3686981201-2.1936988831-3.682800293-3.1175956726-4.7593994141-3.4008026123-10.5495986938-5.3996047974-16.807800293-5.3996047974-16.1559009552,0-29.2483997345,13.287902832-29.2483997345,29.6930007935,0,2.6734008789,.3475990295,5.2593994141,1,7.7144012451-3.9981012344-6.0831985474-6.6594018936-13.1128005981-7.5508012772-20.6963996887v-.0118026733c4.573800087-12.5906028748,16.6335992813-21.588596344,30.8117017746-21.588596344,.2604980469,0,.5323982239,0,.7937011719,.0116958618,.2718963623,0,.5320968628,.0117034912,.8042984009,.0324020386,.2168006897,0,.423500061,.0210952759,.6292991638,.0327987671,.2176017761,.0116958618,.4343986511,.0327987671,.6417999268,.0535049438,.1953010559,.0117950439,.3910980225,.0327987671,.5758018494,.0554962158,.4890975952,.0426025391,.9777984619,.1070022583,1.4554977417,.1840057373,2.1944999695,.3257980347,4.3237991333,.8694915771,6.3566017151,1.6186904907,.4991989136,.1844024658,.9995956421,.3793029785,1.4890975952,.586807251,.3909988403,.163192749,.7815971375,.337097168,1.1617012024,.5214004517,.1530990601,.0652999878,.3046989441,.1413955688,.4679985046,.2183914185,.4242019653,.2066040039,.8258018494,.4234008789,1.2276992798,.6402053833,.2176017761,.1085968018,.4352035522,.2277984619,.6512031555,.3480987549,.7714996338,.4444961548,1.5323944092,.9234008789,2.2707023621,1.4339981079,.358997345,.2507019043,.7179985046,.4996032715,1.065196991,.7604980469,.4137039185,.3163986206,.8262023926,.6305084229,1.228099823,.9559020996q0,.0117034912,.0106010437,.0117034912c.391002655,.3254013062,.7710990906,.6511993408,1.141002655,.9882965088,.4023971558,.3699035645,.7933959961,.7383041382,1.1843948364,1.1307983398,1.2812042236,1.2700042725,2.4547042847,2.6610069275,3.5085983276,4.1379051208"/>
  <path class="cls-2" d="M56.9426050186,45.7852935791c-.3364028931-.1957015991-.6836013794-.3582038879-1.0535049438-.4996032715h-.0110015869c-1.2496032715-.2717933655-2.5426025391-.4460983276-3.8565979004-.5214958191h-.0446014404c-.5097007751-.0324020386-1.0320014954-.0441055298-1.5539016724-.0441055298-.3792953491,0-.7608985901,.0117034912-1.1299972534,.0211029053-14.026599884,.5973014832-25.2168006897,12.1590003967-25.2168006897,26.3262023926,0,10.8968009949,6.6054000854,20.241399765,16.0261001587,24.2503995895-13.4506988525-2.2172002792-25.0109004974-10.0285997391-32.2256984711-20.9691991806-.6520004272-2.4551010132-1-5.0410003662-1-7.7144012451,0-16.4055023193,13.0924987793-29.6930007935,29.2483997345-29.6930007935,6.2582015991,0,12.0484008789,1.9988021851,16.807800293,5.3992004395,1.3148956299,.923500061,2.5429992676,1.9777984619,3.682800293,3.1180038452,.1093978882,.0983924866,.2183990479,.2175941467,.327003479,.3268966675"/>
  <path class="cls-1" d="M58.4309015274,94.9048929214c-3.5304946899,.8355007172-7.225402832,1.2707014084-11.0168037415,1.2707014084-1.9226989746,0-3.8140983582-.1086006165-5.6714935303-.337100029,.1522941589-.0430002213,.2928924561-.0981006622,.435092926-.151599884,.0210990906,0,.0328025818-.0117006302,.0543022156-.0117006302,.043800354-.0101995468,.0864028931-.0101995468,.1192016602-.0324001312-.0110015869,0-.0210990906-.0101995468-.0210990906-.0101995468-.75-.0762004852-1.4887008667-.1858997345-2.2270011902-.316400528-9.42029953-4.0082006454-16.0261993408-13.3527002335-16.0261993408-24.2500009537,0-14.1675987244,11.1910972595-25.7288970947,25.2168006897-26.3266029358-6.7682991028,5.2711029053-11.1140022278,13.4836044312-11.1140022278,22.7090034485,0,9.8219013214,4.9430007935,18.5129013062,12.4832038879,23.696100235,.3257980347,.2168006897,.6511955261,.4351997375,.988697052,.6511993408,2.0862998962,1.3164014816,4.367099762,2.3703012466,6.7793006897,3.109000206"/>
  <path class="cls-2" d="M95.9699029922,47.9790916443c0,1.2823982239-.0550003052,2.5534973145-.1529998779,3.8133010864-.1410064697,.4460983276-.3040084839,.8694992065-.4780044556,1.3046989441-.4990005493,1.2171020508-1.129989624,2.3796043396-1.8679962158,3.4549980164v.011806488c-3.2709960938,4.7690963745-8.714302063,7.8983955383-14.8635025024,7.8983955383-.9237976074,0-1.8362960815-.0753974915-2.7276992798-.216796875-5.1503982544-.7828025818-9.5937957764-3.7828025818-12.3640975952-8.0198974609-.5976028442-1.6184043884-1.3250045776-3.172706604-2.1940994263-4.6500015259-.120300293-.2278022766-.2508010864-.4446029663-.3914031982-.662902832-.0110015869,0-.0110015869-.0109977722-.0110015869-.0109977722-.3799972534-1.4546012878-1.1514968872-2.7476005554-2.1936950684-3.7804031372-.0117034912,0-.0117034912-.0116996765-.0117034912-.0116996765-.2827987671-.4562988281-.5874938965-.9007987976-.912902832-1.3359985352-1.053894043-1.4768981934-2.227394104-2.8679008484-3.5093994141-4.1385993958-.3909912109-.3921966553-.7819976807-.7610015869-1.1843948364-1.1305007935-.3699035645-.3375015259-.75-.662902832-1.1406021118-.9887008667q-.0109024048,0-.0109024048-.0117034912c-.4028015137-.3254013062-.8145027161-.6401977539-1.2281990051-.9559020996-.3471984863-.260093689-.706199646-.5214920044-1.0652008057-.7604980469-.7383003235-.5097961426-1.4983978271-.9887008667-2.2706985474-1.4339981079-.2168045044-.1202926636-.4343986511-.2390975952-.6512031555-.3479995728-.4022941589-.2277984619-.8143959045-.4445953369-1.2276954651-.6403045654-.1632995605-.0761947632-.3148040771-.1530914307-.4680023193-.2182922363-.3793029785-.1844024658-.7707023621-.3582000732-1.1616973877-.5214996338-.4893989563-.206703186-.9781036377-.4024047852-1.4891014099-.5867004395-2.0327987671-.7493057251-4.1613006592-1.2929992676-6.3562011719-1.6188049316-.478099823-.0761947632-.9668006897-.1414031982-1.4558982849-.1839981079-.1847000122-.0225982666-.3804016113-.0445022583-.5757026672-.0550994873-.2074966431-.0209960938-.4242973328-.0429000854-.6417999268-.0539016724-.2058982849-.0117034912-.4124984741-.0323944092-.6292991638-.0323944092-.2723007202-.0211029053-.532497406-.0328063965-.8042984009-.0328063965-.2606010437-.0116958618-.5325012207-.0116958618-.7933998108-.0116958618-14.1789016724,0-26.2387008667,8.9972991943-30.8121013641,21.5887031555-.216799736-1.8567047119-.3249998093-3.747303009-.3249998093-5.6598052979C0,21.4802932739,21.4792985916,0,47.9789018631,0c5.3890953064,0,10.5816001892,.8919906616,15.4269981384,2.5319900513,.2066040039,.0760040283,.4242019653,.140007019,.6304016113,.2280044556,.1313018799,.0429916382,.2616958618,.0869979858,.3930053711,.1410064697,.129699707,.0549926758,.2597961426,.1079940796,.3909912109,.1529846191h.0316009521c.5434036255,.1950073242,1.0757980347,.4110031128,1.6085968018,.640007019,14.3086013794,5.9663009644,25.0974121094,18.6566009521,28.4324035645,34.1377944946,.7070007324,3.2707061768,1.077003479,6.6699066162,1.077003479,10.1473045349"/>
</svg>